<?xml version="1.0" encoding="UTF-8"?>
<!DOCTYPE svg PUBLIC "-//W3C//DTD SVG 1.1//EN" "http://www.w3.org/Graphics/SVG/1.1/DTD/svg11.dtd">
<svg version="1.1" xmlns="http://www.w3.org/2000/svg" xmlns:xlink="http://www.w3.org/1999/xlink" x="0px" y="0px" width="1249" height="1249" viewBox="0, 0, 1249, 1249">
  <g id="Layer 2">
    <path d="M918.646,689.897 C927.74,693.588 936.563,701.749 945.734,705.417 C964.437,712.898 934.453,697.11 953.734,706.751 C1006.772,733.27 1051.146,739.378 1105.734,712.084 C1116.156,706.873 1127.758,697.274 1129.734,685.417 C1132.042,671.572 1131.859,645.139 1123.068,633.417 C1120.804,630.399 1115.111,628.127 1112.401,625.417 C1105.575,618.592 1097.925,610.56 1088.401,606.751 C1085.791,605.707 1082.811,605.53 1080.401,604.084 C1069.173,597.347 1055.295,585.531 1044.401,580.084 C1030.809,573.288 1017.355,567.387 1004.401,558.751 C994.841,552.378 983.231,546.915 975.068,538.751 C966.279,529.962 956.97,520.006 947.068,512.084 C932.939,500.781 915.106,492.103 899.068,484.084 C866.69,467.895 813.63,459.879 777.734,454.751 C768.148,453.381 758.013,455.952 748.401,454.751 C733.892,452.937 667.837,449.956 655.068,452.084 C634.577,455.499 614.429,460.635 593.734,464.084 C572.198,467.673 548.459,459.806 527.068,464.084 C510.087,467.48 493.336,472.697 476.401,476.084 C456.694,480.025 436.037,482.145 416.401,485.417 C405.452,487.242 395.101,491.634 384.401,493.417 C372.428,495.413 360.397,495.418 348.401,497.417 C311.109,503.633 270.003,524.616 236.401,541.417 C200.775,559.23 163.324,578.237 144.401,616.084 C137.314,630.259 124.538,668.495 129.734,684.084 C131.676,689.907 134.593,693.515 137.734,698.751 C139.177,701.155 140.519,706.385 143.068,708.084 C147.784,711.228 155.836,714.118 161.734,716.084 C165.968,717.495 167.971,720.679 172.401,721.417 C254.304,735.068 362.634,731.061 445.734,722.751 C488.168,718.507 531.46,722.702 573.734,717.417 C601.304,713.971 630.165,720.864 657.734,717.417 C674.124,715.369 694.863,717.229 709.734,714.751 C733.82,710.737 757.601,707.532 781.734,704.084 C802.668,701.094 845.501,708.664 861.734,705.417 C872.289,703.306 883.105,701.856 893.734,700.084 C904.146,698.349 915.649,699.446 925.734,696.084" fill="#7E9E41"/>
    <path d="M1174.734,697.167 C1168.109,690.541 1159.82,714.045 1152.472,708.167 C1138.772,700.467 1132.434,708.319 1130.734,706.619 C1119.189,695.073 1087.005,683.331 1070.734,680.619 C1039.62,677.433 1010.016,675.26 992.734,666.619 C984.977,662.741 976.468,660.486 968.734,656.619 C954.167,649.335 933.287,635.079 920.734,624.619 C911.443,616.876 901.747,608.126 890.734,602.619 C882.944,598.724 874.721,599.281 866.734,596.619 C844.807,589.31 823.205,582.364 800.734,578.619 C782.488,575.578 758.584,577.644 740.734,580.619 C720.608,583.974 689.963,580.619 668.734,580.619 C651.358,580.619 653.413,579.066 638.734,576.619 C627.059,574.673 614.41,578.565 602.734,576.619 C569.973,571.159 534.091,567.06 500.734,572.619 C489.059,574.565 476.41,570.673 464.734,572.619 C453.431,574.503 439.211,575.381 428.734,580.619 C422.701,583.636 417.7,587.458 410.734,588.619 C399.059,590.565 386.41,586.673 374.734,588.619 C366.617,589.972 358.847,593.267 350.734,594.619 C340.906,596.257 330.563,594.981 320.734,596.619 C312.622,597.971 304.852,601.266 296.734,602.619 C292.789,603.277 288.68,601.962 284.734,602.619 C274.082,604.395 233.504,614.234 224.734,618.619 C213.499,624.237 205.663,635.155 194.734,640.619 C169.088,661.936 162.225,659.128 160.734,660.619 C156.584,670.919 152.884,674.319 150.734,678.619 C145.869,688.35 140.922,715.746 142.734,726.619 C144.445,736.881 152.242,752.096 148.734,762.619 C140.289,787.956 97.035,761.587 97.035,792.139 C97.035,796.139 107.469,832.824 108.734,836.619 C112.117,846.767 127.865,853.141 136.734,854.619 C142.575,855.593 150.578,860.926 160.734,862.619 C167.327,863.718 172.538,861.652 178.734,860.619 C195.614,857.806 218.522,859.144 232.734,868.619 C248.093,878.858 263.882,895.767 276.734,908.619 C283.36,915.245 287.386,924.741 294.734,930.619 C310.142,942.946 342.488,933.578 360.734,936.619 C368.992,937.995 377.445,942.974 384.734,946.619 C390.334,949.419 416.446,976.33 422.734,982.619 C440.505,1000.389 506.251,1008.7 530.734,1004.619 C552.863,1000.931 568.733,982.286 590.734,978.619 C602.723,976.621 614.742,974.618 626.734,972.619 C632.897,971.592 638.572,967.646 644.734,966.619 C648.68,965.962 652.789,967.277 656.734,966.619 C682.585,962.311 745.264,956.374 770.734,960.619 C776.801,961.63 782.668,963.608 788.734,964.619 C808.012,967.832 883.619,964.619 908.734,964.619 C939.259,964.619 973.543,976.215 1004.734,960.619 C1009.034,958.469 1012.435,954.769 1016.734,952.619 C1022.773,949.6 1029.705,947.649 1034.734,942.619 C1039.841,937.512 1050.399,927.626 1052.734,920.619 C1060.02,898.763 1038.078,875.963 1024.734,862.619 C1019,856.885 1003.672,841.808 1006.734,832.619 C1012.218,816.169 1046.514,822.582 1058.734,824.619 C1068.756,826.289 1084.713,826.289 1094.734,824.619 C1101.879,823.429 1131.702,814.645 1136.734,810.619 C1148.611,801.118 1149.035,798.319 1150.734,796.619 C1166.429,780.924 1174.734,776.34 1174.734,752.619 z" fill="#648A20"/>
    <path d="M1176.068,691.167 C1169.442,684.541 1159.82,673.045 1152.472,667.167 C1138.772,659.467 1120.001,641.841 1118.301,640.141 C1106.755,628.596 1072.572,622.853 1056.301,620.141 C1025.186,616.956 1003.582,608.782 986.301,600.141 C978.544,596.263 970.035,592.008 962.301,588.141 C947.734,580.858 924.853,566.907 912.301,556.447 C903.01,548.704 891.314,551.648 880.301,546.141 C872.51,542.246 862.288,540.804 854.301,538.141 C832.373,530.832 807.567,514.144 786.301,524.141 C769.56,532.012 738.15,517.167 720.301,520.141 C700.175,523.496 669.53,512.141 648.301,512.141 C630.925,512.141 622.98,512.588 608.301,510.141 C596.625,508.195 589.977,512.087 578.301,510.141 C545.54,504.681 529.658,508.582 496.301,514.141 C484.625,516.087 469.977,514.195 458.301,516.141 C446.997,518.025 428.777,518.903 418.301,524.141 C412.267,527.158 401.266,526.981 394.301,528.141 C382.625,530.087 371.977,532.195 360.301,534.141 C352.183,535.494 342.414,536.789 334.301,538.141 C324.473,539.779 316.129,540.503 306.301,542.141 C298.188,543.494 290.419,544.788 282.301,546.141 C278.355,546.799 262.247,555.789 258.301,556.447 C247.649,558.222 227.071,561.756 218.301,566.141 C207.065,571.759 193.23,580.677 182.301,586.141 C156.655,607.458 150.526,614.648 149.035,616.139 C144.886,626.439 134.519,629.839 132.369,634.139 C127.503,643.87 126.557,671.266 128.369,682.139 C130.079,692.401 140.543,707.616 137.035,718.139 C128.59,743.476 97.035,749.587 97.035,780.139 C97.035,784.139 95.771,788.344 97.035,792.139 C100.418,802.286 116.166,808.661 125.035,810.139 C130.876,811.112 138.879,816.446 149.035,818.139 C155.628,819.237 160.839,817.172 167.035,816.139 C183.915,813.325 206.823,814.664 221.035,824.139 C236.394,834.378 252.183,851.287 265.035,864.139 C271.661,870.765 275.687,880.26 283.035,886.139 C298.443,898.465 330.79,889.098 349.035,892.139 C357.293,893.515 365.746,898.494 373.035,902.139 C378.635,904.939 404.747,931.85 411.035,938.139 C428.806,955.909 494.552,964.219 519.035,960.139 C541.164,956.451 557.034,937.806 579.035,934.139 C591.025,932.141 603.043,930.137 615.035,928.139 C621.198,927.112 626.873,923.166 633.035,922.139 C636.981,921.481 641.09,922.796 645.035,922.139 C670.886,917.83 733.565,911.894 759.035,916.139 C765.102,917.15 770.969,919.128 777.035,920.139 C796.313,923.352 871.92,920.139 897.035,920.139 C927.561,920.139 961.844,931.735 993.035,916.139 C997.335,913.989 1000.736,910.289 1005.035,908.139 C1011.074,905.119 1018.006,903.168 1023.035,898.139 C1028.142,893.032 1038.7,883.146 1041.036,876.139 C1048.321,854.283 1026.379,831.483 1013.035,818.139 C1007.301,812.405 991.973,797.327 995.035,788.139 C1000.519,771.688 1034.815,778.102 1047.036,780.139 C1057.057,781.809 1073.014,781.809 1083.036,780.139 C1090.18,778.948 1120.003,770.165 1125.036,766.139 C1136.912,756.637 1137.336,753.838 1139.036,752.139 C1154.73,736.444 1170.472,739.888 1170.472,716.167 z" fill="url(#Gradient_1)"/>
    <path d="M876.156,554.672 C874.897,541.923 876.623,529.592 878.667,517.333 C880.804,504.51 904.638,461.22 902.667,453.333 C900.025,442.767 885.633,477.768 885.333,478.667 C883.836,483.159 880.092,486.39 878.667,490.667 C872.023,510.599 873.333,530.238 873.333,550.667" fill="#698A38"/>
    <path d="M864.003,542.667 C868.772,523.026 864.487,500.838 873.82,482.172 C877.808,474.196 885.254,467.687 889.82,460.839 C895.849,451.796 900.55,443.791 909.82,436.839 C912.999,434.454 931.539,419.461 924.487,414.172 C920.378,411.09 913.386,421.645 911.154,423.505 C899.957,432.836 888.756,441.368 879.154,454.172 C876.501,457.708 876.657,464.669 873.82,467.505 C871.598,469.727 874.637,461.272 875.154,458.172 C876.258,451.542 879.154,444.958 879.154,438.172 C879.154,424.61 894.071,387.004 900.487,374.172 C901.039,373.067 905.046,363.01 904.487,362.172 C900.068,355.544 889.156,385.499 888.487,387.505 C883.753,401.707 872.085,421.918 869.82,435.505 C868.715,442.137 868.259,448.87 867.154,455.505 C866.675,458.377 869.06,469.598 867.154,471.505 C866.44,472.219 865.189,464.279 863.154,458.172 C858.699,444.809 856.143,432.107 853.82,418.172 C853.589,416.786 853.82,414.616 852.487,414.172 C849.189,413.073 852.487,443.724 852.487,447.505 C852.487,454.136 854.07,461.006 855.154,467.505 C858.508,487.635 855.154,518.273 855.154,539.505" fill="#487321"/>
    <path d="M837.703,534.62 C852.962,505.393 857.397,469.716 852,437.333 C850.919,430.85 851.23,408.188 842.667,405.333 C840.613,404.649 844,428.802 844,430.667 C844,454.783 848.031,470.573 840,494.667 C839.104,497.355 837.967,504.699 836,506.667 C834.893,507.774 836,497.805 836,489.333 C836,483.687 836.028,452.028 833.333,449.333 C832.038,448.038 832,452.834 832,454.667 C832,461.025 833.043,468.407 832,474.667 C829.006,492.63 829.333,512.332 829.333,530.667" fill="#607D46"/>
    <path d="M808.469,526.318 C805.162,507.457 815.009,492.318 824,477.333 C824.582,476.363 830.725,466.725 829.333,465.333 C826.736,462.736 816.667,486.333 816,486.667 C813.543,487.895 817.183,474.233 817.333,473.333 C819.331,461.345 822.667,449.653 822.667,437.333 C822.667,435.501 822.014,440.965 821.333,442.667 C819.695,446.762 820.059,450.49 818.667,454.667 C817.066,459.467 815.249,480.376 810.667,482.667 C810.651,482.674 803.271,454.79 800,461.333 C799.556,462.222 801.092,463.036 801.333,464 C802.889,470.222 804,476.132 804,482.667 C804,523.447 797.451,472.747 794.667,486.667 C794.077,489.613 800,521.229 800,530.667" fill="#4F7C16"/>
    <path d="M772.104,533.208 C772.52,510.061 781.967,468.044 796,449.333 C797.604,447.195 800.805,445.149 802.667,442.667 C805.462,438.939 807.928,435.651 810.667,432 C811.421,430.994 814.222,430.222 813.333,429.333 C812.973,428.973 786.316,456.526 784,460 C782.476,462.287 780.954,468.38 778.667,470.667 C777.41,471.924 778.318,467.077 778.667,465.333 C779.742,459.957 780.436,454.718 781.333,449.333 C783.334,437.331 785.577,424.039 792,413.333 C793.527,410.788 803.98,398.647 802.667,397.333 C798.956,393.623 792.904,408.858 792,410.667 C785.925,422.816 776.947,436.987 774.667,450.667 C774.12,453.949 775.661,464.339 773.333,466.667 C772.631,467.369 772.596,464.795 772,464 C768.28,459.039 769.93,463.859 766.667,457.333 C764.57,453.141 761.111,426.445 760,425.333 C757.778,423.111 758.667,431.524 758.667,434.667 C758.667,442.857 762.667,450.39 762.667,458.667 C762.667,473.042 764.314,488.55 766.667,502.667 C768.314,512.554 764,521.255 764,530.667" fill="#59822B"/>
    <path d="M721.469,523.339 C721.495,517.217 720.987,511.257 720,505.333 C718.642,497.185 714.692,489.484 713.333,481.333 C707.285,445.042 712.763,404.752 718.667,369.333 C720.191,360.186 718.475,350.484 720,341.333 C724.171,316.304 745.988,274.691 757.333,252 C760.798,245.07 766.748,239.865 770.667,233.333 C778.921,219.576 784.074,203.926 796,192 C810.646,177.354 824.632,160.585 841.333,146.667 C846.201,142.61 851.444,140.63 857.333,138.667 C860,137.778 865.333,138.811 865.333,136 C865.333,127.03 827.86,145.403 825.333,146.667 C803.262,157.703 786.907,178.7 772,197.333 C768.116,202.188 766.26,208.541 762.667,213.333 C755.743,222.565 746.636,233.427 742.667,245.333 C740.092,253.057 735.429,258.476 732,265.333 C728.846,271.642 727.336,279.995 724,286.667 C717.857,298.952 696.062,386.292 693.333,402.667 C688.569,431.255 695.385,458.974 700,486.667 C701.694,496.83 700.747,508.907 704,518.667" fill="#1F6E23"/>
    <path d="M695.891,507.516 C701.779,490.901 694.692,473.483 692,457.333 C691.351,453.441 692.649,449.225 692,445.333 C690.006,433.366 688.661,421.3 686.667,409.333 C684.232,394.722 690.994,379.371 693.333,365.333 C693.982,361.441 692.685,357.225 693.333,353.333 C700.159,312.381 691.894,318.363 718.667,282.667 C722.264,277.87 726.023,271.483 730.667,268 C748.725,254.456 774.099,259.428 794.667,256 C804.704,254.327 842.771,246.771 850.667,254.667 C852.678,256.678 845.726,255.242 840,253.333 C830.836,250.279 821.651,246.667 812,246.667 C783.177,246.667 754.174,244.247 728,257.333 C724.546,259.06 718.964,260.296 716,262.667 C696.861,277.978 691.926,303.113 688,326.667 C686.642,334.814 682.69,342.525 681.333,350.667 C678.306,368.829 684.36,388.505 681.333,406.667 C677.813,427.789 672.284,487.52 678.667,506.667" fill="#2D6F40"/>
    <path d="M688.062,497.958 C689.138,486.542 674.457,464.076 673.333,457.333 C670.667,441.337 667.999,425.327 665.333,409.333 C663.367,397.537 657.091,384.85 652,374.667 C646.471,363.609 645.193,348.211 638.667,337.333 C626.113,316.41 612.798,295.465 596,278.667 C586.403,269.07 583.61,254.374 568,242.667 C562.245,238.35 558.633,232.24 553.333,228 C543.742,220.327 520.855,220 509.333,220 C507.656,220 493.6,218.134 493.333,218.667 C491.654,222.026 527.599,237.133 530.667,238.667 C553.511,250.089 581.186,264.199 594.667,286.667 C611.747,315.135 626.378,348.936 632,382.667 C633.814,393.548 639.521,403.794 641.333,414.667 C642.931,424.252 649.069,433.081 650.667,442.667 C653.911,462.133 664.86,500.86 678.667,514.667" fill="#34703E"/>
    <path d="M786.026,273.458 C775.937,277.042 775.724,290.238 770.667,298.667 C767.76,303.512 762.501,308.331 760,313.333 C757.888,317.558 762.759,314.574 758.667,318.667 C754.646,322.687 750.847,324.972 748,330.667 C745.263,336.141 741.485,341.03 738.667,346.667 C734.848,354.304 733.15,363.034 729.333,370.667 C724.527,380.28 718.134,389.065 713.333,398.667 C706.305,412.723 698.515,439.12 693.333,454.667 C692.29,457.796 673.505,511.054 682.667,508 C687.837,506.277 691.76,490.054 693.333,485.333 C696.313,476.395 697.213,465.573 701.333,457.333 C709.331,441.337 717.335,425.33 725.333,409.333 C728.444,403.111 728.889,395.556 732,389.333 C737.956,377.422 743.379,365.243 749.333,353.333 C751.872,348.257 755.381,343.048 758.667,338.667 C762.322,333.793 762.466,327.067 765.333,321.333 C768.596,314.808 766.946,319.627 770.667,314.667 C776.017,307.533 778.713,297.241 782.667,289.333 C784.62,285.426 795.378,273.333 784,273.333" fill="#3D7448"/>
    <path d="M795.771,284.266 C790.368,281.921 785.38,288.818 780,286.667 C774.074,284.296 774.376,266.207 776,261.333 C777.827,255.854 794.351,236.525 798.667,229.333 C800.113,226.923 800.076,223.847 801.333,221.333 C804.596,214.808 802.946,219.627 806.667,214.667 C810.641,209.368 811.742,201.85 814.667,196 C818.142,189.05 823.784,181.621 828,176 C831.11,171.853 849.818,161.819 854.667,166.667 C867.672,179.672 834.847,236.973 828,250.667 C826.055,254.557 821.83,257.673 820,261.333 C818.455,264.423 817.489,269.022 816,272 C812.838,278.324 799.868,285.333 793.333,285.333" fill="#9F5B3E"/>
    <path d="M850.578,168.802 C859.398,166.239 861.973,147.072 870.667,145.333 C880.044,143.458 867.667,156.499 865.333,160 C861.53,165.706 863.094,172.453 856,176" fill="#817362"/>
    <path d="M669.266,474.932 C667.084,462.066 655.181,440.422 653.333,429.333 C652.025,421.481 653.31,413.192 652,405.333 C649.314,389.22 643.635,373.448 641.333,357.333 C639.858,347.004 642.041,335.537 640,325.333 C635.565,303.16 636.506,261.654 646.667,241.333 C655.145,224.377 666.565,211.815 681.333,200 C682.808,198.82 692.972,190.305 694.667,192 C698.268,195.602 687.035,206.781 685.333,209.333 C674.153,226.103 658.803,241.985 654.667,262.667 C650.644,282.781 656,309.933 656,330.667 C656,351.25 650.677,398.726 653.333,414.667 C655.831,429.654 664.168,443.673 666.667,458.667 C668.29,468.407 668.794,477.048 672,486.667" fill="#4D7852"/>
    <path d="M671.88,469.135 C670.135,433.677 657.796,400.112 652,365.333 C650.679,357.408 650.655,349.265 649.333,341.333 C647.604,330.955 651.063,319.712 649.333,309.333 C648.357,303.474 645.651,259.682 648,257.333 C651.065,254.268 656.625,264.542 657.333,266.667 C662.597,282.457 657.264,302.254 660,318.667 C662.684,334.768 667.986,350.581 670.667,366.667 C672.18,375.748 669.153,385.586 670.667,394.667 C672.433,405.267 672.9,416.065 674.667,426.667 C675.748,433.153 673.586,440.18 674.667,446.667 C675.772,453.297 678.667,459.881 678.667,466.667" fill="#4D7852"/>
    <path d="M646.823,272.359 C672.364,278.236 656.139,244.278 650.667,233.333 C648.684,229.367 649.268,225.137 648,221.333 C645.478,213.768 640.748,206.829 637.333,200 C633.988,193.309 628.615,187.897 625.333,181.333 C623.368,177.403 606.588,146.02 604,146.667 C595.333,148.833 599.509,173.192 601.333,178.667 C611.306,208.584 612.45,274.667 654.667,274.667" fill="#BD6C48"/>
    <path d="M602.448,155.802 C596.582,159.511 578.811,122.667 586.667,122.667 C588.39,122.667 601.333,152.251 601.333,154.667 C601.333,156.269 599.556,157.333 598.667,158.667" fill="#5F504F"/>
    <path d="M592.01,510.964 C592.137,480.583 588.609,449.449 602.667,421.333 C603.636,419.395 610.09,407.423 608,405.333 C606.858,404.191 604.135,410.442 604,410.667 C600.691,416.181 594.318,420.873 592,426.667 C583.146,448.802 581.333,490.13 581.333,514.667" fill="#6F875D"/>
    <path d="M577.047,508.771 C581.706,464.863 580.999,418.002 601.333,377.333 C602.757,374.487 619.568,348.901 618.667,348 C616.768,346.102 602.32,363.883 600,366.667 C591.026,377.435 581.984,389.366 576,401.333 C573.558,406.217 574.464,433.536 573.333,434.667 C572.468,435.532 570.667,422.084 570.667,421.333 C570.667,410.667 570.667,400 570.667,389.333 C570.667,376.43 567.155,362.402 569.333,349.333 C570.018,345.225 572.649,341.441 573.333,337.333 C575.921,321.808 577.333,305.199 577.333,289.333 C577.333,287.501 576.58,292.928 576,294.667 C573.487,302.206 572,310.741 572,318.667 C572,327.283 568.053,334.348 566.667,342.667 C564.509,355.61 565.333,369.402 565.333,382.667 C565.333,389.788 563.811,395.803 562.667,402.667 C560.899,413.274 560.899,456.059 562.667,466.667 C563.743,473.123 572.022,490.733 574.667,498.667 C576.956,505.533 575.94,512.577 580,518.667" fill="#517925"/>
    <path d="M551.818,508.458 C566.885,474.608 570.22,396.293 548,366.667 C545.587,363.449 542.574,350.62 540,349.333 C535.946,347.306 541.233,358.367 542.667,362.667 C546.228,373.351 547.216,384.314 550.667,394.667 C556.95,413.518 558.247,451.927 552,470.667 C551.396,472.478 551.021,481.823 549.333,482.667 C548.588,483.04 543.064,466.526 542.667,465.333 C540.537,458.945 537.105,451.964 536,445.333 C535.174,440.375 533.535,406.768 530.667,405.333 C529.778,404.889 529.778,407.111 529.333,408 C524.573,417.521 530.252,429.423 533.333,438.667 C534.714,442.81 537.364,446.759 538.667,450.667 C541.525,459.243 539.847,469.75 541.333,478.667 C543.207,489.91 549.832,500.163 553.333,510.667" fill="#688F43"/>
    <path d="M530.411,495.609 C531.469,490.525 543.495,434.054 541.333,433.333 C530.272,429.646 528.468,481.264 526.667,486.667" fill="#83A070"/>
    <path d="M520.323,487.464 C520.75,471.125 527.687,452.627 534.667,438.667 C535.272,437.456 535.082,429.896 532,430.667 C522.276,433.098 521.503,474.159 518.667,482.667" fill="#7B9E5C"/>
    <path d="M516.146,484.646 C515.653,483.542 514.473,482.527 514.667,481.333 C515.27,477.616 519.389,473.609 520,469.333 C520.984,462.444 524.514,416.514 521.333,413.333 C520.038,412.038 520,416.834 520,418.667 C520,424.259 518.667,429.207 518.667,434.667 C518.667,450.686 519.724,467.495 514.667,482.667" fill="#6E8853"/>
    <path d="M511.448,484.333 C511.812,477.512 514.199,426.199 513.333,425.333 C512.391,424.391 510.526,424.737 509.333,425.333 C504.474,427.763 511.487,439.587 512,442.667 C514.255,456.198 512,469.177 512,482.667" fill="#82A65C"/>
    <path d="M490.042,517.703 C485.99,480.103 489.515,440.787 501.333,405.333 C502.782,400.988 514.111,385.555 512,381.333 C511.448,380.229 503.366,390.601 502.667,392 C494.908,407.518 485.333,424.793 485.333,442.667 C485.333,447.589 484.654,437.259 484,433.333 C482.548,424.622 481.333,414.118 481.333,405.333 C481.333,395.772 480.482,386.411 478.667,377.333 C476.097,364.486 480,339.862 480,325.333 C480,322.222 480,331.556 480,334.667 C480,342.667 480,350.667 480,358.667 C480,368.691 477.426,440.093 480,442.667 C481.405,444.072 478.356,439.038 477.333,437.333 C475.174,433.734 474.16,428.933 472,425.333 C466.929,416.881 460.632,410.598 456,401.333 C454.743,398.819 455.321,395.321 453.333,393.333 C450.238,390.238 456.04,401.832 458.667,405.333 C463.828,412.215 466.981,421.961 470.667,429.333 C478.744,445.489 481.333,487.846 481.333,506.667" fill="#728F53"/>
    <path d="M472.469,506.422 C475.766,476.23 472.189,436.377 458.667,409.333 C458.038,408.076 458.59,405.962 457.333,405.333 C452.272,402.803 463.904,430.088 464,430.667 C464.837,435.691 465.255,478.588 465.333,478.667 C468.614,481.948 463.408,469.484 461.333,465.333 C457.615,457.896 456.476,429.809 452,425.333 C451.408,424.742 452,428.886 452,434.667 C452,441.025 450.957,448.407 452,454.667 C455.516,475.76 457.803,494.848 470.667,512 C474.299,516.843 469.318,516 474.667,516" fill="#7E9D51"/>
    <path d="M387.068,539.948 C380.093,512.845 376.035,460.728 362.667,437.333 C355.857,425.417 350.172,413.677 344,401.333 C342.017,397.367 342.601,393.137 341.333,389.333 C339.596,384.12 336.475,378.759 334.667,373.333 C332.352,366.39 332.215,358.723 329.333,352 C325.151,342.242 319.457,331.705 316,321.333 C313.129,312.72 310.215,268.881 306.667,265.333 C305.064,263.731 307.283,269.85 308,272 C310.077,278.23 312.244,284.61 314.667,290.667 C318.301,299.754 319.59,309.846 324,318.667 C329.09,328.847 336.959,336.459 341.333,346.667 C347.38,360.775 374.238,416.094 376,426.667 C378.466,441.464 382.876,455.92 385.333,470.667 C386.942,480.319 386.391,490.345 388,500 C390.659,515.952 398.667,531.51 398.667,548" fill="#717E44"/>
    <path d="M327.036,541.984 C326.571,501.903 326.909,461.696 321.333,422.667 C319.919,412.768 314.009,403.38 312,393.333 C309.005,378.357 308.315,362.907 305.333,348 C300.899,325.828 296.446,303.563 292,281.333 C290.982,276.242 283.244,236.756 284,236 C285.462,234.538 295.283,261.49 296,264 C302.372,286.301 308.2,307.865 312,330.667 C313.355,338.799 315.975,346.516 317.333,354.667 C322.171,383.69 320.936,414.013 326.667,442.667 C330.003,459.351 323.867,477.869 326.667,494.667 C329.353,510.782 332,526.027 332,542.667" fill="#E2EAA7"/>
    <path d="M346.177,550.917 C348.011,536.256 349.885,509.794 353.333,496 C362.483,459.403 371.975,422.843 377.333,385.333 C382.365,350.115 376.701,312.215 386.667,277.333 C388.033,272.551 391.879,267.902 394.667,264 C409.228,243.614 414.33,253.903 432,264 C434.979,265.702 441.511,266.844 444,269.333 C453.604,278.938 428.198,271.901 422.667,274.667 C408.717,281.641 400.037,304.538 396,318.667 C392.572,330.663 392.69,342.525 390.667,354.667 C388.162,369.692 382.506,383.631 380,398.667 C376.942,417.014 377.748,436.18 374.667,454.667 C371.898,471.276 361.452,485.956 358.667,502.667 C357.346,510.591 357.32,518.747 356,526.667 C354.681,534.58 352,542.569 352,550.667" fill="#9EBA73"/>
    <path d="M394.724,541.359 C396.241,536.723 396.519,531.553 397.333,526.667 C399.144,515.802 396.492,504.208 398.667,493.333 C403.701,468.162 407.765,442.745 412,417.333 C414.542,402.084 411.502,383.913 417.333,369.333 C420.328,361.847 425.164,354.95 429.333,348 C431.334,344.665 435.796,330.769 438.667,329.333 C439.768,328.783 440,346.516 440,348 C440,364.148 424.381,392.382 422.667,402.667 C422.228,405.297 423.044,408.027 422.667,410.667 C420.746,424.114 417.91,437.298 416,450.667 C413.952,465.006 418.38,480.386 416,494.667 C413.9,507.27 410.667,521.943 410.667,534.667" fill="#617A34"/>
    <path d="M418.214,527.099 C417.284,507.922 414.423,488.115 410.667,469.333 C407.801,455.004 409.407,439.59 405.333,425.333 C401.363,411.437 393.543,398.383 390.667,384 C385.38,357.569 378.188,330.326 370.667,304 C366.707,290.143 363.695,275.506 361.333,261.333 C361.238,260.759 357.014,249.333 358.667,249.333 C360.653,249.333 381.613,286.489 384,290.667 C398.181,315.483 406.696,352.102 414.667,380 C418.272,392.62 417.407,407.034 420,420 C423.079,435.397 425.399,451.059 428,466.667 C429.525,475.814 427.808,485.516 429.333,494.667 C431.145,505.537 433.333,515.415 433.333,526.667" fill="#85984B"/>
    <path d="M368.104,537.599 C368.158,526.547 372.867,516.133 374.667,505.333 C376.429,494.76 376.911,483.865 378.667,473.333 C382.395,450.965 399,408.667 409.333,388 C414.332,378.003 422.707,367.232 426.667,357.333 C429.982,349.046 444.658,330.648 444,329.333 C442.971,327.275 435.054,334.344 434.667,334.667 C419.057,347.674 407.679,367.631 401.333,386.667 C395.333,404.667 388.329,421.177 381.333,438.667 C376.327,451.181 374.234,466.199 368,478.667 C356.898,500.87 346.667,521.361 346.667,546.667" fill="#93B26E"/>
    <path d="M343.396,550.443 C345.379,532.951 337.987,516.287 333.333,500 C332.418,496.796 333.051,492.485 332,489.333 C328.929,480.119 329.511,490.401 328,481.333 C326.663,473.31 324.62,465.003 321.333,457.333 C315.848,444.533 305.423,433.987 300,421.333 C286.644,390.169 269.452,357.452 245.333,333.333 C241.073,329.073 213.823,293.941 212,293.333 C208.149,292.05 223.187,314.862 224,316 C235.593,332.23 250.169,349.462 260,366.667 C275.286,393.418 292.344,412.357 305.333,442.667 C319.243,475.124 320.241,515.391 332,550.667" fill="#A0C65E"/>
    <path d="M309.984,551.229 C310.703,548.811 308.407,547.367 308,545.333 C305.604,533.356 310.01,520.059 308,508 C305.042,490.254 304.9,471.202 302.667,453.333 C302.076,448.608 302.666,441.996 301.333,437.333 C293.323,409.297 283.987,381.293 274.667,353.333 C270.876,341.963 270.331,327.885 264,317.333 C260.644,311.741 255.606,306.743 252,301.333 C251.22,300.164 251.924,297.962 250.667,297.333 C249.028,296.514 248.653,300.965 249.333,302.667 C252.596,310.822 254.559,318.345 257.333,326.667 C266.518,354.219 269.068,366.674 274.667,394.667 C277.557,409.121 278.909,424.121 281.333,438.667 C282.847,447.748 279.82,457.586 281.333,466.667 C282.236,472.085 285.611,477.39 286.667,482.667 C291.55,507.084 293.333,532.13 293.333,557.333" fill="#E0F5A7"/>
    <path d="M322.339,553.109 C310.875,538.556 295.215,527.136 285.333,510.667 C281.774,504.734 279.285,498.875 274.667,493.333 C257.571,472.819 218.471,434.244 197.333,417.333 C194.121,414.763 165.333,394.208 165.333,393.333 C165.333,392.408 171.571,395.857 172,396 C180.731,398.91 188.869,401.706 197.333,405.333 C217.17,413.835 225.716,412.383 242.667,429.333 C244.933,431.6 248.205,432.615 250.667,434.667 C256.358,439.41 274.21,457.096 278.667,462.667 C292.328,479.743 303.944,497.915 316,516 C318.54,519.81 333.333,545.96 333.333,548" fill="#DFEF7E"/>
    <path d="M299.891,559.375 C299.525,545.046 294.356,531.469 292,517.333 C286.907,486.776 276.135,456.315 264,428 C262.304,424.042 259.438,420.841 257.333,417.333 C249.601,404.445 244.865,386.126 241.333,372 C239.959,366.501 235.821,361.774 234.667,356 C231.723,341.28 230.667,324.48 230.667,309.333 C230.667,301.173 227.832,273.501 228,273.333 C228.01,273.323 233.515,283.03 237.333,290.667 C244.684,305.369 251.785,341.38 254.667,358.667 C255.797,365.447 258.87,371.886 260,378.667 C262.217,391.968 262.682,405.409 265.333,418.667 C268.966,436.828 281,452.664 284,470.667 C288.641,498.513 292.329,527.653 301.333,554.667" fill="#96BA56"/>
    <path d="M280.229,561.568 C283.572,546.806 271.417,531.919 269.333,517.333 C264.155,481.082 243.942,435.419 229.333,401.333 C222.533,385.466 222.766,365.93 220,349.333 C219.315,345.225 216.685,341.441 216,337.333 C213.17,320.355 209.207,285.712 214.667,269.333 C216.107,265.011 217.183,256.854 220,253.333 C234.548,235.148 260.907,230.059 280,245.333 C281.251,246.334 283.173,247.813 282.667,249.333 C282.323,250.364 272.005,247.777 270.667,248 C267.011,248.609 254.246,255.186 250.667,257.333 C232.061,268.497 223.668,285.672 230.667,306.667 C234.848,319.21 239.35,344.694 245.333,354.667 C254.23,369.494 262.423,390.541 265.333,408 C269.927,435.559 276.709,462.923 281.333,490.667 C282.474,497.514 286.859,503.82 288,510.667 C290.372,524.901 291.429,540.953 296,554.667" fill="#6E8135"/>
    <path d="M311.552,547.156 C315.978,538.485 303.31,529.609 300,521.333 C290.162,496.739 280.141,470.855 264,449.333 C256.536,439.382 199.065,390.199 186.667,384 C168.977,375.155 142.052,375.231 122.667,372 C121.201,371.756 111.338,370.676 110.667,369.333 C110.401,368.802 124.259,369.154 125.333,369.333 C136.477,371.191 148.709,368.785 160,370.667 C174.565,373.094 186.855,381.932 201.333,384 C229.721,388.055 273.074,417.791 288,442.667 C294.236,453.06 299.313,464.632 305.333,474.667 C309.479,481.577 314.948,487.229 318.667,494.667 C326.108,509.55 325.486,527.125 330.667,542.667" fill="#E5EF9A"/>
    <path d="M267.005,563.135 C237.149,541.563 188.798,486.818 157.333,473.333 C149.783,470.097 83.6,451.6 82.667,450.667 C80.518,448.518 94.061,449.01 104,450.667 C117.642,452.94 137.517,464.506 152,469.333 C183.725,479.908 232.986,502.122 258.667,522.667 C268.753,530.736 271.393,544.726 280,553.333" fill="#D8E899"/>
    <path d="M224.552,580.052 C185.008,575.942 144.688,488.366 124,457.333 C120.607,452.244 113.606,442.803 108,440 C106.96,439.48 94.879,434.241 96,432 C99.676,424.647 131.65,448.253 134.667,450.667 C162.911,473.263 179.943,507.399 202.667,534.667 C210.589,544.174 215.397,556.73 224,565.333" fill="#94B759"/>
    <path d="M220.198,568.932 C205.167,560.917 185.435,525.638 180,509.333 C178.377,504.466 175.166,500.583 173.333,496 C172.124,492.977 172.536,488.547 172,485.333 C170.491,476.277 164.272,466.149 161.333,457.333 C155.603,440.144 153.508,420.349 145.333,404 C143.35,400.034 122.667,328.491 122.667,325.333 C122.667,323.346 124.141,329.077 125.333,330.667 C129.695,336.482 133.968,342.362 138.667,348 C144.428,354.914 166.574,395.721 169.333,404 C173.108,415.324 173.332,427.998 178.667,438.667 C184.961,451.255 195.383,477.014 197.333,490.667 C199.613,506.625 202.953,520.858 208,536 C209.812,541.436 214.397,562.667 220,562.667" fill="#728430"/>
    <path d="M251,562.979 C231.056,530.002 189.354,443.746 158.667,425.333 C153.845,422.44 107.089,402.177 106.667,401.333 C105.966,399.932 128.834,402.667 129.333,402.667 C150.586,402.667 183.184,424.721 200,437.333 C213.081,447.144 241.467,479.067 246.667,494.667 C253.158,514.139 253.712,537.235 265.333,554.667" fill="#B5D16A"/>
    <path d="M277.099,540.26 C272.645,533.58 269.527,525.656 265.333,518.667 C262.345,513.685 256.793,508.844 253.333,504 C246.434,494.341 242.047,482.559 234.667,473.333 C230.585,468.232 225.242,463.879 221.333,458.667 C214.329,449.328 206.123,442.281 198.667,433.333 C187.646,420.108 178.806,405.472 166.667,393.333 C161.419,388.085 163.958,393.278 160,388 C145.985,369.313 110.927,321.247 82.667,330.667 C73.264,333.801 74.961,347.186 68,350.667 C67.205,351.064 68,348.889 68,348 C68,340.865 68.281,351.02 66.667,341.333 C65.828,336.303 65.084,325.854 69.333,322.667 C82.669,312.665 104.924,321.436 116,330.667 C124.452,337.71 130.866,348.577 140,354.667 C154.006,364.004 166.964,376.238 180,386.667 C183.61,389.555 188.235,389.741 192,392 C207.051,401.03 236.62,428.602 246.667,442.667 C257.969,458.489 259.468,477.602 268,494.667 C273.661,505.988 293.333,541.327 293.333,552" fill="#82A156"/>
    <path d="M267.182,542.297 C267.118,526.619 265.946,506.865 260,492 C257.422,485.555 252.849,479.879 250.667,473.333 C247.886,464.99 246.799,456.398 244,448 C236.651,425.952 223.348,404.77 220,381.333 C216.751,358.588 218.596,334.526 208,313.333 C205.804,308.942 189.603,271.73 192,269.333 C193.405,267.928 193.425,273.115 194.667,274.667 C199.23,280.371 202.868,285.669 206.667,292 C213.998,304.219 221.046,314.884 226.667,328 C236.727,351.475 238.561,375.365 242.667,400 C244.896,413.377 251.397,426.443 253.333,440 C257.253,467.438 268.809,526.426 277.333,552" fill="#DCE894"/>
    <path d="M273.71,552.597 C259.314,536.331 249.88,516.514 237.949,498.618 C228.282,484.116 216.77,470.81 205.949,457.284 C198.67,448.185 195.75,437.042 191.283,426.618 C188.684,420.554 184.866,415.118 181.949,409.284 C175.439,396.264 173.949,362.029 173.949,346.618 C173.949,330.418 169.914,314.405 167.283,298.618 C167.079,297.395 164.067,287.559 165.949,286.618 C166.319,286.433 173.55,299.02 173.949,299.951 C181.044,316.505 189.481,331.878 195.283,349.284 C204.851,377.989 210.352,406.367 215.283,435.951 C218.584,455.758 211.348,477.61 215.283,497.284 C217.55,508.62 222.797,522.372 224.616,533.284 C226.568,544.995 227.468,556.508 231.283,567.951" fill="#9DC65F"/>
    <path d="M322.688,536.969 C324.015,524.238 328.556,512.054 332,500 C336.843,483.049 340.409,465.235 345.333,448 C346.904,442.501 349.939,438.485 352,433.333 C367.008,395.814 381.161,357.215 406.667,325.333 C410.58,320.442 425.581,298.667 432,298.667 C434.222,298.667 428.994,302.012 428,304 C424.856,310.287 422.325,316.57 418.667,322.667 C411.601,334.443 406.98,347.033 400,358.667 C395.415,366.308 389.439,374.456 385.333,382.667 C381.236,390.861 376.203,398.26 372,406.667 C367.545,415.576 366.415,425.919 362.667,434.667 C360.426,439.895 356.957,444.924 356,450.667 C354.033,462.467 354.452,475.311 350.667,486.667 C344.842,504.141 337.333,523.581 337.333,542.667" fill="#CEEC76"/>
    <path d="M686.667,518.641 C684.171,511.56 689.469,504.521 690.667,497.333 C691.105,494.703 690.228,491.964 690.667,489.333 C691.707,483.09 717.055,424.279 720,421.333 C725.21,416.123 729.984,408.91 734.667,402.667 C741.093,394.098 744.609,382.782 749.333,373.333 C752.596,366.808 750.946,371.627 754.667,366.667 C761.963,356.938 765.787,343.688 772,333.333 C787.227,307.956 810.574,289.395 834.667,273.333 C847.349,264.878 862.978,258.118 877.333,253.333 C878.32,253.005 885.333,251.056 885.333,249.333 C885.333,244.4 858.834,251.75 857.333,252 C843.401,254.322 806.037,275.297 796,285.333 C786.214,295.119 776.697,307.795 768,318.667 C757.342,331.989 749.594,345.008 738.667,358.667 C727.734,372.332 710.345,391.31 702.667,406.667 C688.735,434.529 678.667,483.627 678.667,514.667" fill="#83B684"/>
    <path d="M1152.972,697.803 L1152.972,697.667" fill-opacity="0" stroke="#000000" stroke-width="1" stroke-linecap="round"/>
    <path d="M1151.23,681.647 C1144.604,675.022 1132.25,659.844 1123.099,657.647 C1056.433,641.647 1013.714,635.621 996.433,626.981 C988.676,623.102 932.566,594.848 924.832,590.981 C910.265,583.697 880.157,565.24 864.091,562.265 C817.766,553.689 779.099,552.496 757.249,548.986 C738.985,546.052 708.32,538.006 690.471,540.981 C670.345,544.335 666.878,539.697 645.824,536.981 C583.454,528.934 545.636,539.421 512.279,544.981 C500.603,546.927 462.255,548.796 450.58,550.742 C439.276,552.626 437.347,549.89 425.766,551.647 C342.484,564.286 300.209,573.013 292.091,574.366 C288.146,575.024 268.037,584.99 264.091,585.647 C253.439,587.423 234.945,586.929 226.751,592.314 C204.433,606.981 172.59,624.157 171.099,625.647 C166.95,635.947 142.583,616.014 140.433,620.314 C135.567,630.045 125.114,644.108 126.927,654.981 C128.637,665.243 161.274,680.958 157.766,691.481 C149.321,716.818 137.766,730.981 125.971,753.604 C124.122,757.151 124.706,761.809 125.971,765.604 C129.354,775.752 143.564,782.836 152.433,784.314 C158.274,785.288 166.276,790.621 176.433,792.314 C183.025,793.413 188.236,791.347 194.433,790.314 C211.313,787.501 239.554,797.506 253.766,806.981 C269.125,817.22 261.119,824.752 273.971,837.604 C280.597,844.23 284.623,853.725 291.971,859.604 C307.379,871.93 339.725,862.563 357.971,865.604 C366.229,866.98 374.681,871.959 381.971,875.604 C387.571,878.404 413.682,905.315 419.971,911.604 C437.741,929.374 503.487,937.684 527.971,933.604 C550.099,929.916 565.969,911.271 587.971,907.604 C599.96,905.606 611.978,903.603 623.971,901.604 C630.133,900.577 635.809,896.631 641.971,895.604 C645.917,894.946 650.025,896.261 653.971,895.604 C679.822,891.295 742.501,885.359 767.971,889.604 C774.038,890.615 779.904,892.593 785.971,893.604 C805.249,896.817 880.856,893.569 905.971,893.604 C937.766,893.647 969.671,883.754 973.971,881.604 C980.01,878.585 986.942,876.633 991.971,871.604 C997.078,866.497 1007.635,856.611 1009.971,849.604 C1017.256,827.748 995.315,804.948 981.971,791.604 C976.237,785.87 960.908,770.793 963.971,761.604 C969.454,745.154 1043.75,751.567 1055.971,753.604 C1065.993,755.274 1081.949,755.274 1091.971,753.604 C1145.848,730.102 1146.271,727.304 1147.971,725.604 C1163.666,709.909 1173.492,715.202 1173.492,691.481 z" fill="#51B5E9" fill-opacity="0.431"/>
    <path d="M239.083,574.605 C268.836,555.489 307.538,552.738 341.958,547.001 C359.476,544.082 376.439,537.921 393.958,535.001 C400.445,533.92 407.472,536.082 413.958,535.001 C416.731,534.539 419.186,532.797 421.958,532.335 C432.404,530.594 443.508,532.743 453.958,531.001 C467.364,528.767 480.553,525.236 493.958,523.001 C515.185,519.464 631.214,524.544 653.958,528.335 C667.963,530.669 695.943,528.004 709.958,525.668 C722.806,523.527 733.813,529.266 745.958,531.001 C753.782,532.119 762.168,529.703 769.958,531.001 C782.138,533.031 793.774,538.304 805.958,540.335 C813.742,541.632 822.175,539.037 829.958,540.335 C840.624,542.112 851.291,543.89 861.958,545.668 C876.126,548.029 915.798,567.921 929.958,575.001 C956.976,588.51 986.933,596.155 1013.958,609.668 C1026.037,615.707 1040.252,616.815 1049.958,621.668 C1055.3,624.339 1061.781,630.957 1067.292,632.335 C1082.912,636.24 1131.41,643.119 1141.958,653.668 C1145.991,657.7 1148.544,662.921 1152.625,667.001 C1154.818,669.194 1169.503,677.354 1171.292,680.335 C1173.398,683.845 1170.248,687.834 1172.082,691.501 C1174.922,697.182 1174.321,703.805 1172.089,710.501 C1170.961,713.886 1167.27,728.153 1164.342,730.349 C1160.815,732.995 1143.147,719.349 1140.625,717.668 C1121.601,704.985 1104.61,692.335 1080.625,692.335 C1049.741,692.335 1019.495,676.436 992.625,663.001 C975.594,654.486 957.629,647.503 940.625,639.001 C934.403,635.89 926.847,635.446 920.625,632.335 C913.684,628.864 907.558,623.801 900.625,620.335 C896.437,618.24 847.867,599.542 844.625,599.001 C839.26,598.107 833.714,597.546 828.625,595.001 C815.843,588.61 802.858,582.707 788.625,580.335 C767.436,576.803 745.807,575.865 724.625,572.335 C712.438,570.303 700.81,565.032 688.625,563.001 C672.84,560.37 656.404,561.631 640.625,559.001 C633.402,557.797 627.215,553.198 620.625,551.001 C614.098,548.826 595.591,547.174 588.625,548.335 C574.871,550.627 561.119,552.697 547.292,555.001 C530.035,557.878 509.178,566.687 491.292,569.668 C472.805,572.749 453.75,573.258 435.292,576.335 C423.137,578.36 411.498,582.3 399.292,584.335 C379.807,587.582 365.536,602.546 348.625,611.001 C328.792,620.918 286.868,628.628 264.625,632.335 C256.776,633.643 248.477,632.359 240.625,633.668 C233.048,634.931 228.217,639.872 221.958,643.001 C213.719,647.121 142.33,665.652 134.354,660.335 C123.149,652.864 129.775,636.895 133.986,628.473 C137.992,620.461 181.014,597.409 188.625,592.335 C207.285,579.895 232.281,575.56 253.958,568.335" fill="#1F99C2" fill-opacity="0.689"/>
    <path d="M1163.864,709.673 C1163.85,708.369 1173.208,705.707 1173.994,704.667 C1174.841,703.545 1173,698.662 1173.994,697.668 C1176.277,695.385 1172.678,683.108 1171.292,680.335 C1165.802,669.354 1126.557,658.462 1114.489,652.428 C1100.497,645.432 1088.461,635.414 1074.489,628.428 C1069.378,625.873 1063.5,626.099 1058.489,624.428 C1052.038,622.278 1044.69,616.862 1038.489,613.761 C1036.761,612.898 967.329,589.901 966.489,589.761 C961.537,588.936 955.195,588.664 950.489,587.095 C943.301,584.699 938.531,579.783 931.822,576.428 C931.027,576.031 930.044,576.428 929.155,576.428 C927.822,575.984 926.412,575.723 925.155,575.095 C896.229,560.631 845.229,540.44 813.155,535.095 C788.148,530.927 762.284,539.283 737.155,535.095 C723.895,532.885 710.414,531.971 697.155,529.761 C691.678,528.848 686.633,525.341 681.155,524.428 C669.406,522.47 656.899,525.052 645.155,523.095 C621.118,519.089 569.383,515.634 545.155,519.095 C527.756,521.58 510.363,522.893 493.155,525.761 C479.598,528.021 466.689,534.495 453.155,536.428 C445.335,537.545 436.944,535.13 429.155,536.428 C420.073,537.942 405.426,534.18 396.341,535.694 C372.215,539.715 357.673,540.992 333.617,545.001 C324.47,546.526 310.659,552.184 301.508,553.71 C294.727,554.84 288.627,554.772 281.846,555.902 C264.783,558.746 237.972,567.353 222.489,575.095 C206.964,582.857 193.573,572.777 181.781,584.569 C179.305,587.046 173.035,596.548 170.489,599.095 C167.302,602.281 164.016,607.954 160.875,611.095 C156.393,615.576 128.139,629.86 132.718,639.017 C136.045,645.672 162.744,646.967 167.822,644.428 C192.943,631.867 212.96,616.049 239.822,607.095 C250.871,603.412 260.642,602.291 271.822,600.428 C284.146,598.374 295.498,590.482 307.822,588.428 C316.726,586.944 327.298,585.936 335.822,583.095 C348.273,578.944 362.384,572.001 375.822,569.761 C383.89,568.417 391.747,565.774 399.822,564.428 C409.062,562.888 418.649,564.623 427.822,563.095 C435.97,561.737 443.671,557.786 451.822,556.428 C486.156,550.706 521.081,544.428 555.822,544.428 C564.734,544.428 575.049,542.966 583.822,544.428 C595.727,546.412 607.258,550.522 619.822,548.428 C637.142,545.541 657.928,540.112 675.822,543.095 C681.504,544.042 685.387,549.877 690.489,552.428 C703.773,559.07 727.663,561.957 742.489,564.428 C759.351,567.238 781.171,569.981 798.489,567.095 C803.537,566.253 801.288,564.895 806.489,565.761 C811.893,566.662 817.092,568.862 822.489,569.761 C846.504,573.764 867.279,587.569 886.489,599.095 C895.874,604.726 908.679,604.857 918.489,609.761 C925.806,613.42 933.304,622.465 941.155,624.428 C949.992,626.637 980.605,634.153 987.822,637.761 C997.522,642.612 1006.073,648.887 1015.822,653.761 C1018.656,655.178 1071.923,670.445 1075.822,671.095 C1086.2,672.824 1097.443,669.365 1107.822,671.095 C1113.043,671.965 1139.376,687.983 1143.822,692.428 C1146.841,695.447 1147.398,698.216 1151.822,700.428 C1157.196,703.115 1171.009,706.627 1176.068,710" fill="#17737F" fill-opacity="0.717"/>
    <path d="M133.237,640.589 C136.689,624.262 184.727,597.807 200.342,590 C210.219,585.061 221.859,585.081 232.342,583.333 C244.082,581.377 253.219,573.187 264.342,571.333 C277.602,569.123 291.084,568.21 304.342,566 C311.188,564.859 317.495,560.474 324.342,559.333 C332.332,558.002 340.342,556.667 348.342,555.333 C362.749,552.932 377.93,555.069 392.342,552.667 C402.326,551.003 414.846,550.499 424.342,547.333 C433.83,544.171 442.228,539.686 452.342,538 C477.068,533.879 503.623,540.786 528.342,536.667 C564.055,530.714 628.627,530.714 664.342,536.667 C674.72,538.396 685.963,534.937 696.342,536.667 C705.858,538.253 714.833,543.082 724.342,544.667 C751.099,549.126 810.739,541.733 836.342,546 C852.457,548.686 865.174,559.611 880.342,564.667 C890.616,568.091 898.737,575.864 908.342,580.667 C927.661,590.327 947.931,599.128 967.008,608.667 C973.032,611.679 982.133,613.264 988.342,615.333 C992.322,616.66 996.56,620.109 1000.342,622 C1006.447,625.053 1014.258,626.639 1020.342,628.667 C1033.575,633.078 1050.395,639.676 1064.342,642 C1071.475,643.189 1077.234,643.631 1084.342,646 C1107.753,653.804 1130.703,659.181 1152.342,670 C1154.959,671.309 1176.438,699.682 1174.734,691.167 C1173.989,687.438 1165.281,665.84 1161.675,663.333 C1130.985,642 1141.675,648.667 1123.008,634 C1118.615,630.548 1112.64,626.939 1107.008,626 C1103.583,625.429 1098.171,625.932 1095.008,624.667 C1083.079,619.895 1072.651,616.274 1059.008,614 C1048.053,612.174 1037.963,605.159 1027.008,603.333 C1022.056,602.508 1015.715,602.236 1011.008,600.667 C1003.785,598.259 947.631,572.134 943.008,568.667 C926.821,556.527 908.681,544.335 889.675,538 C884.968,536.431 878.627,536.159 873.675,535.333 C868.197,534.42 863.152,530.913 857.675,530 C836.127,526.409 815.22,518.924 793.675,515.333 C774.074,512.067 753.29,515.936 733.675,512.667 C724.594,511.153 714.756,514.18 705.675,512.667 C681.816,508.69 657.541,507.311 633.675,503.333 C621.999,501.387 609.351,505.279 597.675,503.333 C580.582,500.485 559.295,497.73 541.675,500.667 C534.895,501.797 528.449,504.871 521.675,506 C505.897,508.63 489.452,507.371 473.675,510 C465.602,511.345 457.748,513.988 449.675,515.333 C433.097,518.096 415.576,515.239 399.008,518 C384.577,520.405 373.179,532.971 359.008,535.333 C352.456,536.425 345.56,535.575 339.008,536.667 C322.998,539.335 307.008,542 291.008,544.667 C276.087,547.154 261.934,554.179 247.008,556.667 C236.23,558.463 225.568,557.147 215.008,560.667 C195.507,567.167 156.639,598.295 143.008,615.333 C138.295,621.225 128.523,635.333 128.523,640.667 z" fill="#906419"/>
  </g>
  <g id="Layer 3">
    <g>
      <path d="M635.646,782.615 C476.053,782.615 346.677,740.612 346.677,688.799 C346.677,636.987 476.053,594.984 635.646,594.984 C795.239,594.984 924.615,636.987 924.615,688.799 C924.615,740.612 795.239,782.615 635.646,782.615 z" fill="#4FAFDB" fill-opacity="0.587"/>
      <path d="M635.646,782.615 C476.053,782.615 346.677,740.612 346.677,688.799 C346.677,636.987 476.053,594.984 635.646,594.984 C795.239,594.984 924.615,636.987 924.615,688.799 C924.615,740.612 795.239,782.615 635.646,782.615 z" fill-opacity="0" stroke="#8FE7FF" stroke-width="4"/>
    </g>
    <g>
      <path d="M635.646,759.375 C495.187,759.375 381.323,722.605 381.323,677.247 C381.323,631.89 495.187,595.12 635.646,595.12 C776.105,595.12 889.969,631.89 889.969,677.247 C889.969,722.605 776.105,759.375 635.646,759.375 z" fill="#73D2F7" fill-opacity="0.531"/>
      <path d="M635.646,759.375 C495.187,759.375 381.323,722.605 381.323,677.247 C381.323,631.89 495.187,595.12 635.646,595.12 C776.105,595.12 889.969,631.89 889.969,677.247 C889.969,722.605 776.105,759.375 635.646,759.375 z" fill-opacity="0" stroke="#8FE7FF" stroke-width="4"/>
    </g>
    <g>
      <path d="M634.089,806.427 C458.463,806.427 316.091,756.598 316.091,695.13 C316.091,633.663 458.463,583.833 634.089,583.833 C809.714,583.833 952.086,633.663 952.086,695.13 C952.086,756.598 809.714,806.427 634.089,806.427 z" fill="#4EAEDB" fill-opacity="0.544"/>
      <path d="M634.089,806.427 C458.463,806.427 316.091,756.598 316.091,695.13 C316.091,633.663 458.463,583.833 634.089,583.833 C809.714,583.833 952.086,633.663 952.086,695.13 C952.086,756.598 809.714,806.427 634.089,806.427 z" fill-opacity="0" stroke="#6CC9F5" stroke-width="4"/>
    </g>
    <g>
      <path d="M669.758,681.625 C674.689,684.93 676.809,690.15 681.836,693.167 C690.346,698.272 712.061,705.076 721.836,701.167 C726.273,699.392 729.195,686.654 728.503,682.5 C726.065,667.872 698.412,647.485 684.503,645.167 C678.582,644.18 670.046,644.348 664.503,642.5 C657.555,640.184 651.45,634.149 644.503,631.833 C637.478,629.492 627.917,629.069 620.503,627.833 C585.049,621.924 583.089,641.402 560.503,645.167 C553.785,646.286 537.643,646.693 532.503,651.833 C531.666,652.67 526.363,693.413 527.169,695.833 C530.318,705.28 541.046,704.268 547.169,709.167 C551.932,712.977 552.234,720.898 556.503,725.167 C568.373,737.037 670.731,737.605 683.169,725.167 C690.701,717.635 682.439,709.04 679.169,702.5 C675.962,696.085 676.016,689.039 673.836,682.5" fill="#42A44B"/>
      <path d="M669.758,681.625 C674.689,684.93 676.809,690.15 681.836,693.167 C690.346,698.272 712.061,705.076 721.836,701.167 C726.273,699.392 729.195,686.654 728.503,682.5 C726.065,667.872 698.412,647.485 684.503,645.167 C678.582,644.18 670.046,644.348 664.503,642.5 C657.555,640.184 651.45,634.149 644.503,631.833 C637.478,629.492 627.917,629.069 620.503,627.833 C585.049,621.924 583.089,641.402 560.503,645.167 C553.785,646.286 537.643,646.693 532.503,651.833 C531.666,652.67 526.363,693.413 527.169,695.833 C530.318,705.28 541.046,704.268 547.169,709.167 C551.932,712.977 552.234,720.898 556.503,725.167 C568.373,737.037 670.731,737.605 683.169,725.167 C690.701,717.635 682.439,709.04 679.169,702.5 C675.962,696.085 676.016,689.039 673.836,682.5" fill-opacity="0" stroke="#1B9254" stroke-width="3" stroke-linecap="round"/>
    </g>
    <g>
      <path d="M586.758,647.005 C580.326,641.002 538.792,642.298 536.503,649.167 C535.316,652.727 545.794,654.271 547.169,654.5 C556.237,656.011 545.955,655.429 555.169,658.5 C567.879,662.737 585.723,659.833 599.169,659.833" fill="#905D99"/>
      <path d="M586.758,647.005 C580.326,641.002 538.792,642.298 536.503,649.167 C535.316,652.727 545.794,654.271 547.169,654.5 C556.237,656.011 545.955,655.429 555.169,658.5 C567.879,662.737 585.723,659.833 599.169,659.833" fill-opacity="0" stroke="#BDC5CC" stroke-width="3" stroke-linecap="round"/>
    </g>
    <g>
      <path d="M587.456,655.932 C581.261,654.402 539.533,665.895 543.169,673.167 C549.222,685.273 598.284,675.09 607.169,669.167" fill="#905D99"/>
      <path d="M587.456,655.932 C581.261,654.402 539.533,665.895 543.169,673.167 C549.222,685.273 598.284,675.09 607.169,669.167" fill-opacity="0" stroke="#BDC5CC" stroke-width="3" stroke-linecap="round"/>
    </g>
    <g>
      <path d="M590.237,663.297 C581.046,664.549 566.909,688.776 572.503,697.167 C575.671,701.919 602.557,687.113 605.836,683.833 C610.1,679.569 610.705,675.197 613.836,670.5" fill="#905D99"/>
      <path d="M590.237,663.297 C581.046,664.549 566.909,688.776 572.503,697.167 C575.671,701.919 602.557,687.113 605.836,683.833 C610.1,679.569 610.705,675.197 613.836,670.5" fill-opacity="0" stroke="#BDC5CC" stroke-width="3" stroke-linecap="round"/>
    </g>
    <g>
      <path d="M606.076,672.229 C600.758,680.871 616.173,706.667 623.169,707.833 C638.002,710.305 636.6,667.931 628.503,659.833" fill="#905D99"/>
      <path d="M606.076,672.229 C600.758,680.871 616.173,706.667 623.169,707.833 C638.002,710.305 636.6,667.931 628.503,659.833" fill-opacity="0" stroke="#BDC5CC" stroke-width="3" stroke-linecap="round"/>
    </g>
    <g>
      <path d="M629.388,672.385 C634.762,679.452 696.059,697.907 699.169,695.833 C703.093,693.218 694.585,684.732 693.836,683.833 C680.97,668.394 670.875,664.624 652.503,658.5" fill="#905D99"/>
      <path d="M629.388,672.385 C634.762,679.452 696.059,697.907 699.169,695.833 C703.093,693.218 694.585,684.732 693.836,683.833 C680.97,668.394 670.875,664.624 652.503,658.5" fill-opacity="0" stroke="#BDC5CC" stroke-width="3" stroke-linecap="round"/>
    </g>
    <g>
      <path d="M659.492,649.979 C663.341,646.537 708.967,664.702 704.503,669.167 C701.9,671.769 665.326,677.441 660.503,675.833 C654.49,673.829 646.586,663.625 643.169,658.5" fill="#905D99"/>
      <path d="M659.492,649.979 C663.341,646.537 708.967,664.702 704.503,669.167 C701.9,671.769 665.326,677.441 660.503,675.833 C654.49,673.829 646.586,663.625 643.169,658.5" fill-opacity="0" stroke="#BDC5CC" stroke-width="3" stroke-linecap="round"/>
    </g>
    <g>
      <path d="M637.529,655.794 C641.154,667.512 638.577,677.334 630.492,685.419 C628.687,687.224 625.493,694.152 622.492,694.752 C613.536,696.543 609.474,664.471 611.825,657.419" fill="#905D99"/>
      <path d="M637.529,655.794 C641.154,667.512 638.577,677.334 630.492,685.419 C628.687,687.224 625.493,694.152 622.492,694.752 C613.536,696.543 609.474,664.471 611.825,657.419" fill-opacity="0" stroke="#BDC5CC" stroke-width="3" stroke-linecap="round"/>
    </g>
    <g>
      <path d="M617.034,661.26 C610.326,669.544 577.476,679.96 573.836,674.5 C573.056,673.331 574.725,671.833 575.169,670.5 C580.202,655.403 590.228,656.905 601.836,649.167" fill="#905D99"/>
      <path d="M617.034,661.26 C610.326,669.544 577.476,679.96 573.836,674.5 C573.056,673.331 574.725,671.833 575.169,670.5 C580.202,655.403 590.228,656.905 601.836,649.167" fill-opacity="0" stroke="#BDC5CC" stroke-width="3" stroke-linecap="round"/>
    </g>
    <g>
      <path d="M601.029,663.141 C581.562,660.873 568.41,649.074 555.169,635.833 C554.467,635.131 552.503,635.494 552.503,634.5 C552.503,625.028 594.814,645.167 599.169,645.167" fill="#905D99"/>
      <path d="M601.029,663.141 C581.562,660.873 568.41,649.074 555.169,635.833 C554.467,635.131 552.503,635.494 552.503,634.5 C552.503,625.028 594.814,645.167 599.169,645.167" fill-opacity="0" stroke="#BDC5CC" stroke-width="3" stroke-linecap="round"/>
    </g>
    <g>
      <path d="M606.247,647.161 C589.753,644.016 567.562,634.189 564.503,615.833 C564.272,614.447 562.176,612.827 563.169,611.833 C565.157,609.846 568.503,613.611 571.169,614.5 C582.444,618.258 598.075,622.132 605.836,631.833 C613.196,641.034 599.706,630.858 611.169,638.5" fill="#905D99"/>
      <path d="M606.247,647.161 C589.753,644.016 567.562,634.189 564.503,615.833 C564.272,614.447 562.176,612.827 563.169,611.833 C565.157,609.846 568.503,613.611 571.169,614.5 C582.444,618.258 598.075,622.132 605.836,631.833 C613.196,641.034 599.706,630.858 611.169,638.5" fill-opacity="0" stroke="#BDC5CC" stroke-width="3" stroke-linecap="round"/>
    </g>
    <g>
      <path d="M598.94,630.552 C598.811,614.397 598.57,601.766 609.836,590.5 C611.368,588.968 610.834,584.766 615.169,586.5 C624.852,590.373 625.243,626.946 621.836,637.167" fill="#905D99"/>
      <path d="M598.94,630.552 C598.811,614.397 598.57,601.766 609.836,590.5 C611.368,588.968 610.834,584.766 615.169,586.5 C624.852,590.373 625.243,626.946 621.836,637.167" fill-opacity="0" stroke="#BDC5CC" stroke-width="3" stroke-linecap="round"/>
    </g>
    <g>
      <path d="M621.039,626.953 C620.013,614.816 628.01,595.694 637.836,587.833 C638.933,586.955 640.842,587.494 641.836,586.5 C642.464,585.871 640.947,583.833 641.836,583.833 C644.176,583.833 644.503,600.492 644.503,602.5 C644.503,618.574 640.655,628.518 631.169,641.167 C628.629,644.554 625.099,645.308 623.169,649.167" fill="#905D99"/>
      <path d="M621.039,626.953 C620.013,614.816 628.01,595.694 637.836,587.833 C638.933,586.955 640.842,587.494 641.836,586.5 C642.464,585.871 640.947,583.833 641.836,583.833 C644.176,583.833 644.503,600.492 644.503,602.5 C644.503,618.574 640.655,628.518 631.169,641.167 C628.629,644.554 625.099,645.308 623.169,649.167" fill-opacity="0" stroke="#BDC5CC" stroke-width="3" stroke-linecap="round"/>
    </g>
    <g>
      <path d="M629.737,639.953 C629.326,639.024 628.169,638.126 628.503,637.167 C628.881,636.079 682.373,605.007 683.169,605.167 C690.115,606.556 684.388,622.615 681.836,625.167 C666.729,640.274 661.386,639.983 641.836,646.5" fill="#905D99"/>
      <path d="M629.737,639.953 C629.326,639.024 628.169,638.126 628.503,637.167 C628.881,636.079 682.373,605.007 683.169,605.167 C690.115,606.556 684.388,622.615 681.836,625.167 C666.729,640.274 661.386,639.983 641.836,646.5" fill-opacity="0" stroke="#BDC5CC" stroke-width="3" stroke-linecap="round"/>
    </g>
    <g>
      <path d="M642.268,642.302 C646.252,636.179 666.509,605.005 657.836,598.5 C653.135,594.975 631.263,605.486 628.503,609.167 C624.447,614.574 623.88,623.035 621.836,629.167" fill="#905D99"/>
      <path d="M642.268,642.302 C646.252,636.179 666.509,605.005 657.836,598.5 C653.135,594.975 631.263,605.486 628.503,609.167 C624.447,614.574 623.88,623.035 621.836,629.167" fill-opacity="0" stroke="#BDC5CC" stroke-width="3" stroke-linecap="round"/>
    </g>
    <g>
      <path d="M625.56,632.276 C623.873,623.518 596.296,588.941 588.503,590.5 C586.931,590.814 586.553,593.067 585.836,594.5 C580.779,604.614 590.564,612.158 595.169,619.833 C598.988,626.198 600.193,633.369 604.503,639.833" fill="#905D99"/>
      <path d="M625.56,632.276 C623.873,623.518 596.296,588.941 588.503,590.5 C586.931,590.814 586.553,593.067 585.836,594.5 C580.779,604.614 590.564,612.158 595.169,619.833 C598.988,626.198 600.193,633.369 604.503,639.833" fill-opacity="0" stroke="#BDC5CC" stroke-width="3" stroke-linecap="round"/>
    </g>
    <g>
      <path d="M604.857,638.073 C593.686,638.55 550.255,626.081 541.836,634.5 C537.309,639.027 555.221,646.064 557.836,646.5 C574.431,649.266 589.469,645.167 605.836,645.167" fill="#905D99"/>
      <path d="M604.857,638.073 C593.686,638.55 550.255,626.081 541.836,634.5 C537.309,639.027 555.221,646.064 557.836,646.5 C574.431,649.266 589.469,645.167 605.836,645.167" fill-opacity="0" stroke="#BDC5CC" stroke-width="3" stroke-linecap="round"/>
    </g>
    <g>
      <path d="M635.981,642.05 C640.165,631.299 695.291,632.251 696.773,639.66 C698.367,647.63 652.996,657.03 644.773,655.66 C640.348,654.922 637.011,651.739 632.773,650.326" fill="#905D99"/>
      <path d="M635.981,642.05 C640.165,631.299 695.291,632.251 696.773,639.66 C698.367,647.63 652.996,657.03 644.773,655.66 C640.348,654.922 637.011,651.739 632.773,650.326" fill-opacity="0" stroke="#BDC5CC" stroke-width="3" stroke-linecap="round"/>
    </g>
    <g>
      <path d="M622.779,644.339 L621.836,643.833" fill="#905D99"/>
      <path d="M622.779,644.339 L621.836,643.833" fill-opacity="0" stroke="#BDC5CC" stroke-width="3" stroke-linecap="round"/>
    </g>
    <path d="M644.076,630.682 C638.291,621.209 624.659,621.45 615.008,624.667 C610.93,626.026 606.117,628.224 603.008,631.333 C599.655,634.686 598.354,639.308 596.342,643.333 C583.379,669.258 633.687,671.981 648.342,650 C654.722,640.43 646.768,632.506 639.008,627.333" fill="#FFED80"/>
  </g>
  <defs>
    <linearGradient id="Gradient_1" gradientUnits="userSpaceOnUse" x1="96.473" y1="734.338" x2="1176.068" y2="734.338">
      <stop offset="0" stop-color="#68C8EC"/>
      <stop offset="0.482" stop-color="#AFDBEC"/>
      <stop offset="1" stop-color="#68C8EC"/>
    </linearGradient>
  </defs>
</svg>
